<svg xmlns="http://www.w3.org/2000/svg" width="96" height="96" fill="none"><path fill="#5773E7" d="M49.064 94.548c25.706 0 46.545-20.84 46.545-46.546S74.77 1.457 49.064 1.457c-25.706 0-46.545 20.84-46.545 46.545 0 25.707 20.839 46.546 46.545 46.546Z"/><path fill="#BDC8F6" d="m49.055 16.973-.416 1.414v41.035l.416.416 19.048-11.26-19.048-31.605Z"/><path fill="#fff" d="M49.052 16.973 30.004 48.578l19.048 11.26V16.973Z"/><path fill="#BDC8F6" d="m49.055 63.445-.235.286v14.617l.235.686 19.06-26.843-19.06 11.254Z"/><path fill="#fff" d="M49.052 79.034V63.445L30.004 52.191l19.048 26.843Z"/><path fill="#798FEC" d="m49.049 59.836 19.047-11.26-19.047-8.658v19.918Z"/><path fill="#BDC8F6" d="m30.004 48.576 19.048 11.26V39.918l-19.048 8.658Z"/></svg>