<svg xmlns="http://www.w3.org/2000/svg" width="96" height="96" fill="none"><g clip-path="url(#a)"><mask id="b" width="96" height="96" x="0" y="0" maskUnits="userSpaceOnUse" style="mask-type:luminance"><path fill="#fff" d="M48 96c26.51 0 48-21.49 48-48S74.51 0 48 0 0 21.49 0 48s21.49 48 48 48Z"/></mask><g mask="url(#b)"><path fill="url(#c)" d="M100.544-4.543H-4.546v105.09h105.09V-4.543Z"/></g><path fill="#fff" d="m61.881 58.357 13.58-7.841a2.335 2.335 0 0 0 1.165-2.019V32.816a2.34 2.34 0 0 0-1.164-2.019l-13.58-7.842a2.34 2.34 0 0 0-2.331 0l-13.58 7.842a2.337 2.337 0 0 0-1.164 2.019V60.84l-9.524 5.498-9.523-5.498V49.843l9.523-5.497 6.282 3.626v-7.378l-5.117-2.953a2.333 2.333 0 0 0-2.33 0l-13.58 7.842a2.335 2.335 0 0 0-1.165 2.018v15.681c0 .83.447 1.603 1.164 2.02l13.58 7.84a2.344 2.344 0 0 0 2.33 0l13.58-7.839a2.337 2.337 0 0 0 1.165-2.019V35.16l.173-.098 9.35-5.4 9.523 5.498v10.997l-9.523 5.497-6.271-3.622v7.378l5.107 2.95c.72.413 1.611.41 2.33-.003Z"/></g><defs><linearGradient id="c" x1="-23.751" x2="84.737" y1="4.094" y2="70.484" gradientUnits="userSpaceOnUse"><stop stop-color="#A229C5"/><stop offset="1" stop-color="#7B3FE4"/></linearGradient><clipPath id="a"><path fill="#fff" d="M0 0h96v96H0z"/></clipPath></defs></svg>