<svg xmlns="http://www.w3.org/2000/svg" width="96" height="96" fill="none"><g clip-path="url(#a)"><path fill="#FF0420" d="M48 96c26.51 0 48-21.49 48-48S74.51 0 48 0 0 21.49 0 48s21.49 48 48 48Z"/><path fill="#fff" d="M34.01 60.76c-2.859 0-5.2-.673-7.026-2.018-1.801-1.37-2.702-3.314-2.702-5.836 0-.529.06-1.177.18-1.946.313-1.73.757-3.807 1.333-6.233 1.633-6.604 5.849-9.907 12.646-9.907 1.849 0 3.506.313 4.971.937 1.465.6 2.618 1.513 3.459 2.738.84 1.2 1.26 2.642 1.26 4.323 0 .505-.06 1.14-.18 1.91a81.555 81.555 0 0 1-1.296 6.232c-.84 3.29-2.294 5.752-4.36 7.386-2.065 1.609-4.827 2.413-8.286 2.413Zm.504-5.188c1.345 0 2.485-.397 3.422-1.19.961-.792 1.646-2.005 2.054-3.638.552-2.258.973-4.227 1.26-5.908a8.194 8.194 0 0 0 .145-1.55c0-2.185-1.141-3.278-3.423-3.278-1.345 0-2.498.396-3.458 1.189-.937.793-1.61 2.005-2.018 3.639-.432 1.609-.864 3.578-1.297 5.908a7.69 7.69 0 0 0-.144 1.513c0 2.21 1.153 3.315 3.459 3.315Zm15.272 4.826c-.264 0-.468-.084-.612-.252a.86.86 0 0 1-.108-.648l4.971-23.418c.048-.264.18-.48.396-.648.217-.168.445-.252.685-.252H64.7c2.666 0 4.803.552 6.413 1.657 1.633 1.105 2.45 2.702 2.45 4.791 0 .6-.072 1.225-.217 1.874-.6 2.762-1.813 4.803-3.638 6.124-1.802 1.321-4.276 1.982-7.422 1.982h-4.863l-1.657 7.89c-.049.264-.18.48-.397.648a1.098 1.098 0 0 1-.684.252h-4.9ZM62.54 46.636c1.01 0 1.886-.276 2.63-.829.769-.552 1.273-1.345 1.514-2.377.071-.409.108-.769.108-1.081 0-.697-.204-1.225-.613-1.585-.408-.385-1.105-.577-2.09-.577h-4.323l-1.369 6.45h4.143Z"/></g><defs><clipPath id="a"><path fill="#fff" d="M0 0h96v96H0z"/></clipPath></defs></svg>