<svg xmlns="http://www.w3.org/2000/svg" width="96" height="96" fill="none"><g clip-path="url(#a)"><mask id="b" width="96" height="96" x="0" y="0" maskUnits="userSpaceOnUse" style="mask-type:luminance"><path fill="#fff" d="M96 0H0v96h96V0Z"/></mask><g mask="url(#b)"><path fill="#2081E2" d="M96 48c0 26.508-21.492 48-48 48S0 74.508 0 48 21.492 0 48 0c26.514 0 48 21.492 48 48Z"/><path fill="#fff" d="m23.682 49.612.207-.326 12.487-19.534a.427.427 0 0 1 .75.055c2.085 4.675 3.885 10.49 3.042 14.109-.36 1.49-1.346 3.506-2.456 5.37-.143.272-.3.538-.468.794a.425.425 0 0 1-.355.188H24.047a.426.426 0 0 1-.365-.656Z"/><path fill="#fff" d="M79.339 53.242v3.092a.444.444 0 0 1-.266.404c-.967.415-4.276 1.934-5.652 3.847-3.511 4.887-6.194 11.875-12.19 11.875h-25.02c-8.867 0-16.052-7.21-16.052-16.106v-.286a.43.43 0 0 1 .43-.43h13.946c.276 0 .478.257.453.528a4.76 4.76 0 0 0 .498 2.678 4.907 4.907 0 0 0 4.4 2.732h6.904v-5.39h-6.826a.44.44 0 0 1-.355-.69c.074-.114.158-.232.247-.366a49.712 49.712 0 0 0 2.485-3.964c.627-1.095 1.233-2.264 1.721-3.438.1-.212.178-.429.257-.64.133-.376.271-.726.37-1.076.098-.296.177-.606.256-.898.232-.996.33-2.05.33-3.146 0-.429-.019-.878-.059-1.307-.02-.468-.078-.937-.138-1.405-.04-.414-.113-.824-.192-1.253a21.113 21.113 0 0 0-.395-1.874l-.054-.236c-.118-.43-.217-.839-.355-1.268a47.88 47.88 0 0 0-1.312-3.886c-.172-.488-.37-.957-.567-1.425-.29-.705-.587-1.346-.858-1.953a26.236 26.236 0 0 1-.375-.784 27.674 27.674 0 0 0-.409-.858c-.098-.212-.212-.41-.29-.607l-.844-1.558a.275.275 0 0 1 .31-.4l5.277 1.43h.015c.01 0 .015.006.02.006l.695.192.765.217.28.079V21.94c0-1.514 1.214-2.742 2.713-2.742.75 0 1.43.306 1.918.804.489.498.794 1.179.794 1.938v4.656l.563.157a.448.448 0 0 1 .128.064c.138.104.335.257.587.444.197.158.409.35.665.548.508.41 1.115.937 1.78 1.543.178.153.35.311.509.469a40.68 40.68 0 0 1 2.737 2.771c.256.291.508.587.764.898.257.316.528.626.764.937.311.414.646.843.937 1.292.139.212.296.429.43.641.374.567.705 1.154 1.02 1.74.133.272.272.568.39.859.35.784.626 1.583.804 2.382.054.172.093.36.113.528v.039c.06.237.079.488.099.745.079.818.04 1.637-.138 2.46-.074.35-.173.681-.291 1.031-.119.336-.237.686-.39 1.016a13.773 13.773 0 0 1-1.06 2.012c-.133.237-.291.488-.449.725-.172.252-.35.488-.508.72a15.27 15.27 0 0 1-.685.883c-.212.29-.43.582-.666.838-.33.39-.646.76-.977 1.115-.197.232-.409.468-.626.68-.212.237-.429.45-.626.646-.33.33-.607.587-.839.8l-.542.498a.443.443 0 0 1-.29.108h-4.203v5.39h5.287c1.183 0 2.308-.42 3.215-1.188.311-.272 1.667-1.445 3.27-3.216a.411.411 0 0 1 .202-.123l14.603-4.221a.43.43 0 0 1 .547.414Z"/></g></g><defs><clipPath id="a"><path fill="#fff" d="M0 0h96v96H0z"/></clipPath></defs></svg>